<?xml version="1.0" encoding="UTF-8"?>
<svg id="Layer_2" data-name="Layer 2" xmlns="http://www.w3.org/2000/svg" viewBox="0 0 1802.36 1992.77">
  <g id="Layer_1-2" data-name="Layer 1">
    <g>
      <path d="M116.44,762.38l57.64,16.65c.1-.34,10.21-34.8,33.86-85.46,3.2-6.86,6.45-13.56,9.73-20.15l137.65,118,53.9-62.88-150.39-128.91c6.62-10.67,13.19-20.76,19.62-30.25l183.44,97.71,45.73-53.35-126.37-168.71c8.41-8.31,16.98-16.38,25.69-24.21l153.36,131.46,53.9-62.88-141.43-121.24c23.9-16.91,48.67-32.22,74.27-45.85,6.78-3.61,13.62-7.1,20.52-10.48,6.91,23.9,14.26,45.94,22.05,66.14,10.3,26.7,23.23,48.6,38.77,65.68,15.55,17.09,34.42,28.33,56.61,33.71,22.19,5.38,49.66,3.75,82.42-4.91,28.71-7.59,50.88-18.21,66.54-31.86,15.64-13.64,26.33-29.67,32.08-48.06,5.74-18.39,7.65-38.58,5.73-60.57-1.92-21.98-5.97-44.71-12.17-68.17l-87.35,23.08c6.2,23.46,9.77,42.74,10.74,57.84.96,15.11.06,27.24-2.71,36.41-2.77,9.17-7.14,15.95-13.12,20.34-5.98,4.4-12.82,7.61-20.49,9.63-9.31,2.46-18,2.71-26.09.73-8.09-1.97-15.94-7.9-23.52-17.8-7.59-9.89-15.17-24.65-22.74-44.29-7.09-18.37-14.64-42.49-22.68-72.36,76.76-25.71,159.64-38.71,247.63-38.71,17.47,0,34.73.54,51.8,1.58l-43.5,197.19,244.46,53.93,15.95-72.3-156.24-34.47,29.49-133.69c74.07,13.21,143.68,37.05,208.04,71.38,17.84,9.52,35.31,19.85,52.37,30.97l-121.47,170.66,73.61,52.39,120.32-169.04c25.03,21.19,48.99,44.29,71.79,69.25l-135.06,153.58,67.79,94.22,187.8-78.94c42.19,76.23,59.86,133.11,60.13,133.97l57.43-17.37c-1.14-3.77-19.02-61.73-61.78-140.04l180.16-75.73-54.6-75.88-170.5,77.28c-10.65-15.98-22.21-32.3-34.73-48.76l128.27-135.48-56.43-78.43-128.63,146.27c-24.37-26.27-49.98-50.62-76.73-72.97l104.55-146.88-73.61-52.39-103.48,145.39c-18.78-12.32-38.02-23.77-57.7-34.31-69.64-37.31-144.79-63.28-224.6-77.76l38.13-172.83L1004.08,0l-39.93,180.99c-21.34-1.53-42.97-2.3-64.88-2.3-92.8,0-180.5,13.52-262.07,40.27-2.09-9.43-3.88-18.23-5.38-26.37-4-21.66-5.71-39.59-5.13-53.81.57-14.2,3.62-25.18,9.15-32.92,5.52-7.72,13.75-13.04,24.67-15.93,19.81-5.24,35.36-1.66,46.64,10.71,11.27,12.38,21.08,34.34,29.41,65.88l87.35-23.08c-4.17-15.77-9.75-32.36-16.72-49.77-6.98-17.4-16.98-32.72-29.99-45.94-13.01-13.21-29.86-22.5-50.52-27.86-20.67-5.35-46.57-3.92-77.71,4.31-32.76,8.66-57.37,21.11-73.84,37.36-16.47,16.26-27.24,35.65-32.32,58.19-5.07,22.54-5.47,48.07-1.18,76.57,2.7,17.93,6.26,36.71,10.69,56.33-11.73,5.51-23.33,11.31-34.75,17.42-31.77,17-62.34,36.35-91.62,57.95l-151.83-130.15-86.98,101.46,112.51,144.8c-7.67,8.68-15.21,17.55-22.61,26.62-4.62,5.67-9.11,11.33-13.49,16.99l-160.93-89.8L15.2,499.86l155.51,133.31c-37.69,72.78-53.24,125.62-54.28,129.21ZM1521.78,572.77l-81.77,37.06-1.1-1.53,61.77-65.24c7.4,9.98,14.43,19.89,21.1,29.7ZM288.79,319.53l72.25,61.93c-5.41,4.96-10.76,9.99-16.06,15.12l-57.01-76.1.82-.95ZM324.92,506.93c4.03-4.91,8.09-9.76,12.21-14.55l48.02,61.8-.82.95-67.77-37.82c2.88-3.64,5.68-7.11,8.36-10.39ZM137.7,495.78l.82-.95,86.63,46.15c-4.29,6.42-8.44,12.8-12.44,19.1l-75.01-64.3Z"/>
      <path d="M1684.09,1229.99l-57.64-16.65c-.1.34-10.21,34.8-33.86,85.46-2.76,5.92-5.56,11.72-8.38,17.43l-138.17-117.48-53.65,63.09,150.91,128.31c-6.58,10.68-13.11,20.79-19.52,30.32l-183.82-96.97-45.52,53.54,127,168.13c-8.39,8.35-16.92,16.46-25.6,24.33l-153.83-130.8-53.65,63.1,141.87,120.63c-24.67,17.61-50.27,33.51-76.76,47.62-5.88,3.13-11.81,6.16-17.78,9.12-7.01-23.86-14.45-45.88-22.32-66.03-10.41-26.66-23.42-48.5-39.04-65.52-15.62-17.03-34.53-28.19-56.74-33.48-22.21-5.29-49.68-3.55-82.4,5.24-28.68,7.7-50.81,18.42-66.41,32.13-15.59,13.71-26.21,29.78-31.88,48.19-5.66,18.41-7.5,38.61-5.49,60.59,2,21.98,6.15,44.69,12.45,68.12l87.26-23.44c-6.29-23.43-9.95-42.7-10.98-57.8-1.02-15.1-.17-27.24,2.56-36.42,2.73-9.18,7.08-15.98,13.04-20.39,5.96-4.42,12.78-7.66,20.45-9.72,9.3-2.5,17.99-2.78,26.09-.84,8.1,1.94,15.97,7.83,23.59,17.7,7.63,9.86,15.27,24.58,22.91,44.19,7.16,18.35,14.82,42.46,22.98,72.31-77.57,26.36-161.44,39.66-250.52,39.66-16.43,0-32.68-.47-48.76-1.39l42.7-197.37-244.68-52.93-15.65,72.36,156.38,33.83-28.94,133.79c-75.19-13.1-145.81-37.13-211.05-71.92-16.95-9.04-33.55-18.82-49.8-29.31l120.81-171.18-73.82-52.09-119.68,169.58c-25.13-21.09-49.17-44.1-72.07-68.96l134.48-154.17-68.17-93.95-187.42,79.67c-43.26-77.56-61.34-135.77-61.61-136.64l-57.43,17.37c1.15,3.82,19.46,63.15,63.36,142.93L0,1449.79l54.9,75.66,170.19-77.97c10.71,15.95,22.33,32.23,34.9,48.64l-127.7,135.97,56.75,78.2,128-146.75c24.47,26.18,50.16,50.44,77.01,72.69l-103.91,147.24,73.82,52.1,102.87-145.77c17.9,11.64,36.21,22.49,54.93,32.51,70.59,37.82,146.82,64,227.85,78.35l-37.42,173,88.31,19.1,39.19-181.17c20.28,1.38,40.81,2.08,61.59,2.08,93.99,0,182.74-13.87,265.2-41.31,2.12,9.42,3.95,18.2,5.49,26.33,4.09,21.64,5.87,39.57,5.35,53.78-.51,14.21-3.52,25.19-9.01,32.96-5.49,7.75-13.7,13.1-24.61,16.03-19.79,5.32-35.35,1.8-46.68-10.53-11.32-12.34-21.22-34.25-29.68-65.76l-87.26,23.44c4.23,15.75,9.88,32.32,16.92,49.7,7.05,17.37,17.11,32.65,30.17,45.82,13.07,13.16,29.95,22.38,50.63,27.65,20.69,5.26,46.59,3.73,77.69-4.62,32.72-8.79,57.28-21.34,73.69-37.66,16.41-16.32,27.1-35.76,32.09-58.32,4.98-22.56,5.27-48.09.87-76.57-2.77-17.92-6.41-36.68-10.92-56.28,10.72-5.09,21.31-10.43,31.77-16.03,32.72-17.51,64.17-37.52,94.26-59.91l152.4,129.58,86.57-101.81-113.12-144.39c6.92-7.89,13.73-15.94,20.42-24.16,5.32-6.53,10.49-13.06,15.5-19.57l161.32,89.18,86.98-102.29-156.01-132.65c36.61-71.28,51.75-122.76,52.77-126.31ZM280.46,1422.11l81.63-37.4,1.11,1.52-61.52,65.5c-7.43-9.95-14.5-19.84-21.21-29.63ZM1514.47,1670.38l-72.55-61.69c5.39-4.98,10.72-10.06,16-15.21l57.36,75.94-.81.96ZM1475.61,1485.44c-3.38,4.12-6.79,8.19-10.22,12.22l-48.22-61.55.81-.96,67.87,37.52c-3.55,4.52-6.97,8.78-10.24,12.77ZM1664.84,1493.52l-.81.96-86.83-45.8c4.27-6.44,8.39-12.83,12.37-19.15l75.27,64Z"/>
    </g>
  </g>
</svg>