<?xml version="1.0" encoding="UTF-8"?>
<svg id="Layer_2" xmlns="http://www.w3.org/2000/svg" version="1.1" viewBox="0 0 1802.4 1992.8">
  <!-- Generator: Adobe Illustrator 29.7.1, SVG Export Plug-In . SVG Version: 2.1.1 Build 8)  -->
  <g id="Layer_1-2">
    <g>
      <path d="M116.4,762.4l57.6,16.7c.1-.3,10.2-34.8,33.9-85.5,3.2-6.9,6.4-13.6,9.7-20.2l137.7,118,53.9-62.9-150.4-128.9c6.6-10.7,13.2-20.8,19.6-30.2l183.4,97.7,45.7-53.3-126.4-168.7c8.4-8.3,17-16.4,25.7-24.2l153.4,131.5,53.9-62.9-141.4-121.2c23.9-16.9,48.7-32.2,74.3-45.9,6.8-3.6,13.6-7.1,20.5-10.5,6.9,23.9,14.3,45.9,22,66.1,10.3,26.7,23.2,48.6,38.8,65.7,15.5,17.1,34.4,28.3,56.6,33.7s49.7,3.8,82.4-4.9c28.7-7.6,50.9-18.2,66.5-31.9,15.6-13.6,26.3-29.7,32.1-48.1,5.7-18.4,7.7-38.6,5.7-60.6-1.9-22-6-44.7-12.2-68.2l-87.3,23.1c6.2,23.5,9.8,42.7,10.7,57.8,1,15.1,0,27.2-2.7,36.4s-7.1,16-13.1,20.3c-6,4.4-12.8,7.6-20.5,9.6-9.3,2.5-18,2.7-26.1.7-8.1-2-15.9-7.9-23.5-17.8-7.6-9.9-15.2-24.6-22.7-44.3-7.1-18.4-14.6-42.5-22.7-72.4,76.8-25.7,159.6-38.7,247.6-38.7s34.7.5,51.8,1.6l-43.5,197.2,244.5,53.9,15.9-72.3-156.2-34.5,29.5-133.7c74.1,13.2,143.7,37,208,71.4,17.8,9.5,35.3,19.9,52.4,31l-121.5,170.7,73.6,52.4,120.3-169c25,21.2,49,44.3,71.8,69.2l-135.1,153.6,67.8,94.2,187.8-78.9c42.2,76.2,59.9,133.1,60.1,134l57.4-17.4c-1.1-3.8-19-61.7-61.8-140l180.2-75.7-54.6-75.9-170.5,77.3c-10.7-16-22.2-32.3-34.7-48.8l128.3-135.5-56.4-78.4-128.6,146.3c-24.4-26.3-50-50.6-76.7-73l104.6-146.9-73.6-52.4-103.5,145.4c-18.8-12.3-38-23.8-57.7-34.3-69.6-37.3-144.8-63.3-224.6-77.8l38.1-172.8L1004.1,0l-39.9,181c-21.3-1.5-43-2.3-64.9-2.3-92.8,0-180.5,13.5-262.1,40.3-2.1-9.4-3.9-18.2-5.4-26.4-4-21.7-5.7-39.6-5.1-53.8.6-14.2,3.6-25.2,9.2-32.9,5.5-7.7,13.8-13,24.7-15.9,19.8-5.2,35.4-1.7,46.6,10.7,11.3,12.4,21.1,34.3,29.4,65.9l87.3-23.1c-4.2-15.8-9.8-32.4-16.7-49.8-7-17.4-17-32.7-30-45.9-13-13.2-29.9-22.5-50.5-27.9-20.7-5.4-46.6-3.9-77.7,4.3-32.8,8.7-57.4,21.1-73.8,37.4-16.5,16.3-27.2,35.7-32.3,58.2-5.1,22.5-5.5,48.1-1.2,76.6,2.7,17.9,6.3,36.7,10.7,56.3-11.7,5.5-23.3,11.3-34.8,17.4-31.8,17-62.3,36.4-91.6,58l-151.8-130.1-87,101.5,112.5,144.8c-7.7,8.7-15.2,17.5-22.6,26.6-4.6,5.7-9.1,11.3-13.5,17l-160.9-89.8L15.2,499.9l155.5,133.3c-37.7,72.8-53.2,125.6-54.3,129.2h0ZM1521.8,572.8l-81.8,37.1-1.1-1.5,61.8-65.2c7.4,10,14.4,19.9,21.1,29.7h0ZM288.8,319.5l72.2,61.9c-5.4,5-10.8,10-16.1,15.1l-57-76.1.8-1h0ZM324.9,506.9c4-4.9,8.1-9.8,12.2-14.5l48,61.8-.8,1-67.8-37.8c2.9-3.6,5.7-7.1,8.4-10.4h0ZM137.7,495.8l.8-1,86.6,46.1c-4.3,6.4-8.4,12.8-12.4,19.1l-75-64.3h0Z"/>
      <path d="M1684.1,1230l-57.6-16.7c0,.3-10.2,34.8-33.9,85.5-2.8,5.9-5.6,11.7-8.4,17.4l-138.2-117.5-53.7,63.1,150.9,128.3c-6.6,10.7-13.1,20.8-19.5,30.3l-183.8-97-45.5,53.5,127,168.1c-8.4,8.3-16.9,16.5-25.6,24.3l-153.8-130.8-53.7,63.1,141.9,120.6c-24.7,17.6-50.3,33.5-76.8,47.6-5.9,3.1-11.8,6.2-17.8,9.1-7-23.9-14.4-45.9-22.3-66-10.4-26.7-23.4-48.5-39-65.5-15.6-17-34.5-28.2-56.7-33.5s-49.7-3.6-82.4,5.2c-28.7,7.7-50.8,18.4-66.4,32.1-15.6,13.7-26.2,29.8-31.9,48.2-5.7,18.4-7.5,38.6-5.5,60.6,2,22,6.2,44.7,12.5,68.1l87.3-23.4c-6.3-23.4-10-42.7-11-57.8-1-15.1-.2-27.2,2.6-36.4,2.7-9.2,7.1-16,13-20.4,6-4.4,12.8-7.7,20.4-9.7,9.3-2.5,18-2.8,26.1-.8,8.1,1.9,16,7.8,23.6,17.7,7.6,9.9,15.3,24.6,22.9,44.2,7.2,18.3,14.8,42.5,23,72.3-77.6,26.4-161.4,39.7-250.5,39.7s-32.7-.5-48.8-1.4l42.7-197.4-244.7-52.9-15.7,72.4,156.4,33.8-28.9,133.8c-75.2-13.1-145.8-37.1-211-71.9-17-9-33.5-18.8-49.8-29.3l120.8-171.2-73.8-52.1-119.7,169.6c-25.1-21.1-49.2-44.1-72.1-69l134.5-154.2-68.2-93.9-187.4,79.7c-43.3-77.6-61.3-135.8-61.6-136.6l-57.4,17.4c1.2,3.8,19.5,63.2,63.4,142.9L0,1449.8l54.9,75.7,170.2-78c10.7,15.9,22.3,32.2,34.9,48.6l-127.7,136,56.8,78.2,128-146.8c24.5,26.2,50.2,50.4,77,72.7l-103.9,147.2,73.8,52.1,102.9-145.8c17.9,11.6,36.2,22.5,54.9,32.5,70.6,37.8,146.8,64,227.8,78.3l-37.4,173,88.3,19.1,39.2-181.2c20.3,1.4,40.8,2.1,61.6,2.1,94,0,182.7-13.9,265.2-41.3,2.1,9.4,3.9,18.2,5.5,26.3,4.1,21.6,5.9,39.6,5.3,53.8-.5,14.2-3.5,25.2-9,33-5.5,7.8-13.7,13.1-24.6,16-19.8,5.3-35.3,1.8-46.7-10.5-11.3-12.3-21.2-34.2-29.7-65.8l-87.3,23.4c4.2,15.8,9.9,32.3,16.9,49.7,7,17.4,17.1,32.7,30.2,45.8,13.1,13.2,29.9,22.4,50.6,27.7,20.7,5.3,46.6,3.7,77.7-4.6,32.7-8.8,57.3-21.3,73.7-37.7,16.4-16.3,27.1-35.8,32.1-58.3,5-22.6,5.3-48.1.9-76.6-2.8-17.9-6.4-36.7-10.9-56.3,10.7-5.1,21.3-10.4,31.8-16,32.7-17.5,64.2-37.5,94.3-59.9l152.4,129.6,86.6-101.8-113.1-144.4c6.9-7.9,13.7-15.9,20.4-24.2,5.3-6.5,10.5-13.1,15.5-19.6l161.3,89.2,87-102.3-156-132.7c36.6-71.3,51.8-122.8,52.8-126.3h0ZM280.5,1422.1l81.6-37.4,1.1,1.5-61.5,65.5c-7.4-9.9-14.5-19.8-21.2-29.6h0ZM1514.5,1670.4l-72.6-61.7c5.4-5,10.7-10.1,16-15.2l57.4,75.9-.8,1h0ZM1475.6,1485.4c-3.4,4.1-6.8,8.2-10.2,12.2l-48.2-61.6.8-1,67.9,37.5c-3.6,4.5-7,8.8-10.2,12.8h0ZM1664.8,1493.5l-.8,1-86.8-45.8c4.3-6.4,8.4-12.8,12.4-19.2l75.3,64h0Z"/>
    </g>
  </g>
</svg>