<?xml version="1.0" encoding="UTF-8"?>
<svg id="Layer_2" xmlns="http://www.w3.org/2000/svg" version="1.1" viewBox="0 0 986 370.5">
  <!-- Generator: Adobe Illustrator 29.8.1, SVG Export Plug-In . SVG Version: 2.1.1 Build 2)  -->
  <defs>
    <style>
      .st0, .st1, .st2 {
        stroke: #000;
        stroke-miterlimit: 10;
      }

      .st1 {
        stroke-width: 3px;
      }

      .st2 {
        stroke-width: 14px;
      }
    </style>
  </defs>
  <g>
    <path class="st1" d="M118,308l-22,60h6.1l6.4-17.8h25.9l6.5,17.8h6l-22.2-60h-6.8ZM132.6,345.1h-22.3l5.8-16.3c.7-2.1,1.6-4.6,2.5-7.5.8-2.5,1.7-5.4,2.7-8.6,1,3.2,1.9,6.1,2.7,8.5,1,2.9,1.8,5.5,2.6,7.6l5.9,16.3Z"/>
    <path class="st1" d="M193.4,315.5c3.1-2,6.5-2.9,10.3-2.9s4.5.4,6.5,1.1c2,.7,3.8,1.7,5.4,3,1.6,1.3,2.9,2.8,3.9,4.5s1.8,3.6,2.2,5.7h5.7c-.5-2.8-1.4-5.3-2.7-7.7-1.3-2.4-3-4.5-5.1-6.3-2.1-1.8-4.4-3.2-7.1-4.2-2.7-1-5.6-1.5-8.8-1.5-5,0-9.5,1.3-13.4,3.8-3.9,2.5-7,6.1-9.2,10.7-2.2,4.6-3.3,10.1-3.3,16.3s1.1,11.7,3.3,16.3c2.2,4.6,5.3,8.2,9.2,10.7,3.9,2.5,8.4,3.8,13.4,3.8s6.2-.5,8.9-1.5c2.7-1,5.1-2.4,7.1-4.2,2.1-1.8,3.8-3.9,5.1-6.3,1.3-2.4,2.2-4.9,2.7-7.7h-5.7c-.4,2-1.2,3.9-2.2,5.7s-2.4,3.3-3.9,4.5c-1.6,1.3-3.4,2.3-5.4,3-2,.7-4.2,1.1-6.5,1.1-3.7,0-7.1-1-10.2-2.9-3.1-1.9-5.6-4.8-7.4-8.6-1.9-3.8-2.8-8.4-2.8-13.9s.9-10.1,2.8-13.9c1.8-3.8,4.3-6.7,7.4-8.6Z"/>
    <path class="st1" d="M270.6,341.6c2.9-1.5,5-3.6,6.5-6.3,1.5-2.7,2.2-5.8,2.2-9.3s-.7-6.7-2.2-9.4c-1.5-2.7-3.6-4.8-6.5-6.4-2.9-1.5-6.4-2.3-10.7-2.3h-19.6v60h5.7v-24.1h13.9c.8,0,1.5,0,2.2,0l13,24.2h6.6l-13.7-25.3c.9-.3,1.8-.7,2.6-1.1ZM259.7,338.7h-13.6v-25.6h13.6c3.1,0,5.7.5,7.7,1.6,2.1,1.1,3.6,2.6,4.6,4.5s1.5,4.2,1.5,6.8-.5,4.8-1.5,6.7-2.6,3.4-4.6,4.4c-2,1-4.6,1.6-7.7,1.6Z"/>
    <polygon class="st1" points="298.3 340.4 325.8 340.4 325.8 335.3 298.3 335.3 298.3 313.1 327.6 313.1 327.6 308 292.6 308 292.6 368 328.2 368 328.2 362.9 298.3 362.9 298.3 340.4"/>
    <path class="st1" d="M358,308l-22,60h6.1l6.4-17.8h25.9l6.5,17.8h6l-22.2-60h-6.8ZM372.6,345.1h-22.3l5.8-16.3c.7-2.1,1.6-4.6,2.5-7.5.8-2.5,1.7-5.4,2.7-8.6,1,3.2,1.9,6.1,2.7,8.5,1,2.9,1.8,5.5,2.6,7.6l5.9,16.3Z"/>
    <polygon class="st1" points="386.6 313.1 405.6 313.1 405.6 368 411.3 368 411.3 313.1 430.3 313.1 430.3 308 386.6 308 386.6 313.1"/>
    <rect class="st1" x="442.6" y="308" width="5.7" height="60"/>
    <path class="st1" d="M489.4,347.2c-.7,2.1-1.6,4.6-2.6,7.5-.8,2.4-1.7,5.3-2.7,8.6-1-3.2-1.9-6-2.7-8.5-1-3-1.9-5.5-2.6-7.6l-14.2-39.2h-6l22.2,60h6.7l22-60h-6.1l-14,39.2Z"/>
    <polygon class="st1" points="525.4 340.4 552.8 340.4 552.8 335.3 525.4 335.3 525.4 313.1 554.7 313.1 554.7 308 519.7 308 519.7 368 555.2 368 555.2 362.9 525.4 362.9 525.4 340.4"/>
    <path class="st1" d="M625.6,341.1c-1.6-1.2-3.3-2.3-5.3-3.1-1.9-.8-3.9-1.5-5.8-2.1l-6.3-1.8c-1.9-.6-3.8-1.3-5.6-2.2-1.8-.9-3.3-2-4.5-3.4s-1.8-3.1-1.8-5.2.6-4,1.8-5.7c1.2-1.6,2.8-3,4.9-3.9,2.1-1,4.5-1.4,7.2-1.4,3.9,0,7.2,1,9.7,2.9s4,4.6,4.4,7.9h5.6c-.1-3.1-1-5.8-2.7-8.2-1.7-2.4-4-4.3-6.8-5.7-2.9-1.4-6.2-2.1-10-2.1s-7,.7-10,2.1c-3,1.4-5.3,3.3-7.1,5.8-1.7,2.5-2.6,5.3-2.6,8.6s1.3,6.9,3.9,9.5c2.6,2.5,6.3,4.5,11,5.9l7.1,2.1c2.5.7,4.7,1.6,6.6,2.5,1.9.9,3.3,2.1,4.3,3.4,1,1.4,1.5,3,1.5,5s-.7,4.4-2,6.2c-1.3,1.8-3.1,3.2-5.4,4.2-2.3,1-4.9,1.5-7.9,1.5s-5-.4-7.2-1.3c-2.2-.8-4-2.1-5.3-3.7-1.4-1.6-2.1-3.6-2.4-6h-5.8c.2,3.2,1.2,6,2.9,8.5,1.7,2.4,4.1,4.3,7.1,5.7,3,1.4,6.6,2,10.7,2s8.1-.7,11.2-2.2c3.1-1.5,5.5-3.5,7.2-6.1,1.7-2.6,2.5-5.5,2.5-8.7s-.5-4.6-1.4-6.4-2.2-3.3-3.8-4.5Z"/>
    <polygon class="st1" points="640.1 313.1 659.2 313.1 659.2 368 664.9 368 664.9 313.1 683.8 313.1 683.8 308 640.1 308 640.1 313.1"/>
    <path class="st1" d="M735.6,347.2c0,3.1-.7,5.9-2.1,8.4-1.4,2.5-3.4,4.4-6,5.8-2.6,1.4-5.6,2.1-9,2.1s-6.4-.7-9-2.1c-2.6-1.4-4.6-3.4-6-5.8-1.4-2.5-2.1-5.3-2.1-8.4v-39.2h-5.7v39.6c0,4.1,1,7.7,2.9,10.9s4.6,5.7,8,7.6c3.4,1.8,7.4,2.8,11.9,2.8s8.5-.9,11.9-2.8c3.4-1.8,6.1-4.4,8-7.6s2.9-6.9,2.9-10.9v-39.6h-5.7v39.2Z"/>
    <path class="st1" d="M790.2,311.6c-4.1-2.4-9-3.6-14.7-3.6h-18.8v60h17.7c6,0,11.2-1.2,15.4-3.6,4.2-2.4,7.4-5.8,9.7-10.3,2.2-4.5,3.3-9.9,3.3-16.2s-1.1-11.5-3.3-16c-2.2-4.5-5.3-7.9-9.4-10.3ZM794.7,351.3c-1.7,3.7-4.3,6.6-7.7,8.6s-7.7,3-12.8,3h-11.7v-49.7h12.7c4.8,0,8.9,1,12.2,3,3.3,2,5.8,4.8,7.4,8.5,1.7,3.7,2.5,8.1,2.5,13.2s-.9,9.7-2.6,13.4Z"/>
    <rect class="st1" x="816" y="308" width="5.7" height="60"/>
    <path class="st1" d="M883.7,321.7c-2.2-4.6-5.3-8.2-9.2-10.7-3.9-2.5-8.4-3.8-13.4-3.8s-9.6,1.3-13.5,3.8c-3.9,2.5-7,6.1-9.2,10.7-2.2,4.6-3.3,10.1-3.3,16.3s1.1,11.7,3.3,16.3c2.2,4.6,5.3,8.2,9.2,10.7,3.9,2.5,8.4,3.8,13.5,3.8s9.5-1.3,13.4-3.8c3.9-2.5,7-6.1,9.2-10.7,2.2-4.6,3.3-10,3.3-16.3s-1.1-11.7-3.3-16.3ZM878.8,351.7c-1.8,3.8-4.2,6.7-7.3,8.7-3.1,2-6.6,3-10.4,3s-7.4-1-10.5-3c-3.1-2-5.5-4.9-7.3-8.7-1.8-3.8-2.7-8.3-2.7-13.6s.9-9.9,2.7-13.7c1.8-3.8,4.2-6.7,7.3-8.7,3.1-2,6.6-3,10.5-3s7.4,1,10.4,3,5.5,4.9,7.3,8.7c1.8,3.8,2.7,8.4,2.7,13.7s-.9,9.9-2.7,13.7Z"/>
  </g>
  <g>
    <line class="st2" y1="108.6" x2="986" y2="108.6"/>
    <g>
      <path class="st0" d="M133.1,155L111.8,4.9h-60.5l-2.6,12.1h18c5.9,0,6.3,3,6.2,5.4l-32.3,152.2c-2.1,9.9-6.2,17.1-12.3,21.5-1.1.8-5.1,2.3-18.9,2.3h-1.5l-2.6,12.1h67.7l2.6-12.1h-1.5c-14.3,0-17.7-1.6-18.4-2.5-3.6-4.6-4.4-11.7-2.4-21.3l29.4-138.5,26,171.5,6.6-.4L220.6,34.5l-34.8,163.8h-27.3l-2.6,12.1h84.7l2.6-12.1h-27.3L254.4,17h27.3l2.6-12.1h-58.7l-92.6,150.1h0Z"/>
      <path class="st0" d="M425.1,170.3c-13.8,11.4-26.6,19.6-38,24.6-11.4,4.9-25.3,7.2-41.4,6.9-15.8-.3-26.9-9.1-33.1-26.1-5.9-17.5-5.9-40.3-.1-67.8,6.6-31.1,16.4-55,29.1-70.9,12.5-15.7,28.3-24.1,46.9-24.9,16.9-.8,28.5,2.6,34.4,10,6,7.4,7.8,19.7,5.6,36.5l-.2,1.4h11.7l10.4-48.7-.9-.4c-9.4-3.9-17.7-6.7-24.7-8.2-7-1.5-18.7-2.2-34.8-2.2-25.6,0-49.6,9.9-71.2,29.5-21.6,19.5-36,45-42.8,75.7-6.8,30.7-3.5,57,9.8,78.2,13.4,20.8,33.1,31.4,58.6,31.4s32.5-2.7,45.5-8.1c13.1-5.4,26.6-15.5,40.2-30.2l.9-1-4.5-6.8-1.4,1.1h0Z"/>
      <path class="st0" d="M605.7,138.6c-4.8,19.1-14.2,34.2-27.9,44.8h0c-4.3,3.6-10.7,6.8-18.9,9.7-8.2,2.9-15,4.3-20.1,4.3l-43.6.9,38.5-181.3h27.6l2.6-12.1h-84.4l-2.6,12.1h27.6l-38.5,181.3h-27.6l-2.6,12.1h163.1l19.6-73.3h-12.4l-.4,1.4h0Z"/>
      <polygon class="st0" points="668 17 695.6 17 657.1 198.3 629.4 198.3 626.9 210.5 714 210.5 716.5 198.3 689.2 198.3 727.7 17 755.1 17 757.7 4.9 670.6 4.9 668 17"/>
      <path class="st0" d="M913,5.5l-2.5,11.8h1.5c15.4,0,16.6,1.8,16.7,2v.3c.6,1,.9,3.3,0,8-.8,3.9-4,10.5-9.3,19.4l-72.2,119.7-20.3-149.4h22.9l2.5-11.8h-79.2l-2.5,11.8h22.5l26.7,199.3h13.9l100-168.6c8.5-14.9,15.8-24.1,21.7-27.5,3.9-2.4,10.9-3.5,20.7-3.3h1.5s2.5-11.8,2.5-11.8h-67.1,0Z"/>
    </g>
  </g>
</svg>