<?xml version="1.0" encoding="UTF-8"?>
<svg id="Layer_2" data-name="Layer 2" xmlns="http://www.w3.org/2000/svg" viewBox="0 0 1001.8 384.86">
  <defs>
    <style>
      .cls-1 {
        stroke: #231f20;
        stroke-width: 2px;
      }

      .cls-1, .cls-2 {
        stroke-miterlimit: 10;
      }

      .cls-2 {
        fill: none;
        stroke: #000;
        stroke-width: 14px;
      }
    </style>
  </defs>
  <g id="Layer_1-2" data-name="Layer 1">
    <line class="cls-2" y1="108.07" x2="1001.8" y2="108.07"/>
    <g>
      <path d="M148.88,154.56L127.66,4.41h-60.48l-2.57,12.11h17.96c5.86,0,6.35,3.03,6.18,5.36l-32.35,152.19c-2.1,9.88-6.23,17.11-12.31,21.52-1.12.84-5.06,2.26-18.88,2.26h-1.5l-2.57,12.11h67.68l2.57-12.11h-1.5c-14.3,0-17.67-1.57-18.4-2.5-3.61-4.58-4.41-11.74-2.39-21.28l29.44-138.5,25.99,171.52,6.57-.43L236.41,34.03l-34.82,163.83h-27.34l-2.57,12.11h84.73l2.57-12.11h-27.34l38.54-181.34h27.34l2.57-12.11h-58.67l-92.55,150.15Z"/>
      <path d="M440.89,169.78c-13.81,11.39-26.6,19.65-38.02,24.55-11.36,4.87-25.3,7.21-41.37,6.91-15.77-.28-26.92-9.08-33.14-26.12-5.91-17.52-5.94-40.32-.11-67.78,6.62-31.14,16.42-54.99,29.12-70.9,12.52-15.68,28.28-24.06,46.85-24.91,16.89-.76,28.46,2.61,34.38,10.01,5.95,7.45,7.84,19.74,5.61,36.54l-.18,1.38h11.71l10.35-48.69-.88-.37c-9.39-3.93-17.69-6.68-24.67-8.16-7-1.48-18.71-2.23-34.81-2.23-25.61,0-49.56,9.91-71.18,29.46-21.56,19.5-35.95,44.95-42.78,75.66-6.82,30.71-3.54,57,9.77,78.17,13.43,20.83,33.13,31.39,58.56,31.39,17.19,0,32.51-2.72,45.55-8.07,13.09-5.38,26.63-15.53,40.24-30.19l.9-.97-4.51-6.81-1.37,1.13Z"/>
      <path d="M621.52,138.15c-4.83,19.1-14.2,34.18-27.87,44.83l-.04.04c-4.31,3.55-10.66,6.8-18.86,9.65-8.24,2.86-15,4.31-20.12,4.31l-43.63.85,38.54-181.31h27.64l2.57-12.11h-84.44l-2.57,12.11h27.64l-38.54,181.34h-27.64l-2.57,12.11h163.15l19.56-73.27h-12.43l-.36,1.44Z"/>
      <polygon points="683.82 16.52 711.46 16.52 672.91 197.86 645.27 197.86 642.7 209.98 729.78 209.98 732.36 197.86 705.02 197.86 743.56 16.52 770.9 16.52 773.48 4.41 686.39 4.41 683.82 16.52"/>
      <path d="M928.82,5l-2.51,11.82h1.5c15.37,0,16.62,1.82,16.7,2l.09.27c.47,1.03.82,3.26-.19,7.99-.83,3.92-3.97,10.46-9.32,19.45l-72.18,119.7-20.31-149.4h22.91l2.51-11.82h-79.15l-2.51,11.82h22.48l26.72,199.33h13.86l100.01-168.57c8.51-14.9,15.81-24.14,21.74-27.49,3.94-2.35,10.9-3.45,20.69-3.27l1.52.03,2.52-11.85h-67.09Z"/>
    </g>
    <g>
      <path class="cls-1" d="M61.3,300.91l-29.89,81.58h8.27l8.67-24.26h35.3l8.82,24.26h8.21l-30.17-81.58h-9.2ZM81.13,351.34h-30.33l7.92-22.17c.99-2.81,2.14-6.22,3.45-10.24,1.1-3.35,2.32-7.26,3.67-11.73,1.34,4.43,2.56,8.3,3.64,11.59,1.29,3.96,2.49,7.42,3.59,10.38l8.06,22.17Z"/>
      <path class="cls-1" d="M163.88,311.1c4.22-2.66,8.88-4,13.99-4,3.21,0,6.18.48,8.9,1.45,2.72.97,5.16,2.33,7.31,4.08s3.94,3.8,5.37,6.16c1.42,2.35,2.43,4.94,3.01,7.75h7.77c-.66-3.76-1.89-7.26-3.7-10.51-1.81-3.25-4.12-6.09-6.93-8.51s-6.05-4.32-9.72-5.67c-3.67-1.35-7.67-2.03-12.02-2.03-6.86,0-12.96,1.72-18.29,5.15-5.33,3.43-9.51,8.29-12.54,14.56-3.03,6.28-4.54,13.69-4.54,22.23s1.51,15.9,4.54,22.17c3.03,6.28,7.21,11.12,12.54,14.54,5.33,3.41,11.42,5.12,18.29,5.12,4.38,0,8.4-.68,12.07-2.05,3.67-1.37,6.91-3.28,9.72-5.72,2.81-2.45,5.12-5.28,6.93-8.51,1.81-3.23,3.02-6.71,3.64-10.43h-7.77c-.58,2.77-1.59,5.35-3.01,7.72-1.42,2.37-3.21,4.43-5.37,6.19s-4.59,3.11-7.31,4.08c-2.72.97-5.69,1.45-8.9,1.45-5.07,0-9.72-1.31-13.93-3.94-4.22-2.63-7.58-6.52-10.1-11.66s-3.78-11.46-3.78-18.94,1.25-13.8,3.75-18.94c2.5-5.15,5.86-9.05,10.07-11.72Z"/>
      <path class="cls-1" d="M250.74,320.46c-3.83,0-7.25.94-10.27,2.82s-5.14,4.39-6.38,7.53h-.55v-9.53h-7.23v61.21h7.45v-39.26c0-3.03.7-5.71,2.11-8.05,1.4-2.34,3.35-4.18,5.83-5.53,2.48-1.35,5.29-2.03,8.43-2.03.99,0,1.9.05,2.74.14s1.39.17,1.64.25v-7.45c-.51-.04-1.11-.06-1.81-.08-.69-.02-1.35-.03-1.97-.03Z"/>
      <path class="cls-1" d="M306.48,327.88c-2.48-2.5-5.27-4.36-8.38-5.58s-6.33-1.83-9.69-1.83c-5.33,0-10.01,1.37-14.04,4.11-4.03,2.74-7.17,6.5-9.42,11.28-2.24,4.78-3.37,10.26-3.37,16.43s1.14,11.63,3.42,16.37c2.28,4.75,5.51,8.46,9.69,11.14,4.18,2.68,9.13,4.02,14.86,4.02,4.13,0,7.77-.67,10.95-2,3.18-1.33,5.81-3.09,7.91-5.28,2.1-2.19,3.62-4.56,4.57-7.12l-7.06-2.24c-.73,1.79-1.83,3.44-3.31,4.96-1.48,1.51-3.3,2.73-5.48,3.64-2.17.91-4.68,1.37-7.53,1.37-4.2,0-7.84-.99-10.92-2.98-3.09-1.99-5.47-4.78-7.15-8.38-1.57-3.36-2.39-7.24-2.5-11.64h45.42v-3.23c0-5.18-.71-9.69-2.14-13.52s-3.38-7-5.86-9.5ZM269.08,347.73c.19-3.38.99-6.52,2.39-9.42,1.62-3.36,3.89-6.06,6.79-8.1,2.9-2.04,6.29-3.07,10.16-3.07s7.25,1,10.02,3.01c2.77,2.01,4.91,4.75,6.41,8.21,1.22,2.82,1.93,5.94,2.16,9.36h-37.92Z"/>
      <path class="cls-1" d="M366.38,324.65c-2.19-1.51-4.56-2.59-7.12-3.23s-5.04-.96-7.45-.96c-3.14,0-6.24.46-9.31,1.4-3.07.93-5.82,2.4-8.27,4.41-2.45,2.01-4.34,4.67-5.69,7.99l7.12,2.41c.73-1.71,1.82-3.29,3.26-4.74,1.44-1.44,3.26-2.61,5.45-3.5s4.73-1.34,7.61-1.34c3.07,0,5.67.53,7.8,1.59,2.14,1.06,3.76,2.57,4.87,4.54,1.11,1.97,1.67,4.33,1.67,7.06v1.42c0,1.53-.63,2.65-1.89,3.34-1.26.69-3.08,1.2-5.45,1.51-2.37.31-5.26.68-8.65,1.12-3.47.44-6.63,1.04-9.5,1.81-2.87.77-5.36,1.82-7.47,3.15s-3.74,3.03-4.87,5.09c-1.13,2.06-1.7,4.61-1.7,7.64,0,3.94.9,7.3,2.71,10.07,1.81,2.77,4.23,4.87,7.28,6.3,3.05,1.42,6.43,2.14,10.16,2.14,3.32,0,6.23-.53,8.73-1.59,2.5-1.06,4.61-2.44,6.32-4.13,1.72-1.7,3.01-3.48,3.89-5.34h.55v9.69h7.28v-41.56c0-4.05-.68-7.4-2.03-10.05-1.35-2.65-3.12-4.73-5.31-6.24ZM366.33,359.01c0,3.32-.75,6.37-2.24,9.14-1.5,2.77-3.61,4.98-6.35,6.63s-5.97,2.46-9.69,2.46c-2.63,0-4.98-.46-7.06-1.37-2.08-.91-3.72-2.23-4.93-3.94-1.2-1.71-1.81-3.8-1.81-6.24s.63-4.4,1.89-5.97c1.26-1.57,3.1-2.81,5.53-3.72,2.43-.91,5.34-1.57,8.73-1.97,1.2-.15,2.61-.33,4.22-.55s3.2-.47,4.79-.77c1.59-.29,3-.64,4.24-1.04,1.24-.4,2.14-.86,2.68-1.37v8.71Z"/>
      <path class="cls-1" d="M410.65,376.23c-.75.13-1.38.19-1.89.19-2.77.29-4.84-.27-6.19-1.7s-2.03-3.65-2.03-6.68v-40.3h12.59v-6.46h-12.59v-14.56h-7.45v14.56h-9.09v6.46h9.09v40.79c0,4.75,1.38,8.44,4.13,11.09,2.76,2.65,6.58,3.81,11.47,3.48.99-.04,1.96-.13,2.93-.27.97-.15,1.85-.35,2.66-.6l-1.53-6.41c-.66.15-1.36.28-2.11.41Z"/>
      <rect class="cls-1" x="425.9" y="321.28" width="7.45" height="61.21"/>
      <path class="cls-1" d="M429.68,299.55c-1.46,0-2.73.5-3.8,1.51-1.08,1-1.62,2.24-1.62,3.7s.54,2.65,1.62,3.67c1.08,1.02,2.35,1.53,3.8,1.53s2.77-.51,3.83-1.53c1.06-1.02,1.59-2.24,1.59-3.67s-.53-2.69-1.59-3.7-2.34-1.51-3.83-1.51Z"/>
      <path class="cls-1" d="M479.06,359.77c-1.28,3.43-2.41,6.86-3.39,10.29-.58,2.01-1.17,3.97-1.77,5.91-.61-1.94-1.21-3.91-1.79-5.91-.99-3.43-2.12-6.86-3.39-10.29l-14.13-38.49h-8.1l23.38,61.21h7.99l23.38-61.21h-8.05l-14.13,38.49Z"/>
      <path class="cls-1" d="M553.96,327.88c-2.48-2.5-5.27-4.36-8.38-5.58-3.1-1.22-6.33-1.83-9.69-1.83-5.33,0-10.01,1.37-14.04,4.11-4.03,2.74-7.17,6.5-9.42,11.28-2.25,4.78-3.37,10.26-3.37,16.43s1.14,11.63,3.42,16.37c2.28,4.75,5.51,8.46,9.69,11.14,4.18,2.68,9.13,4.02,14.86,4.02,4.12,0,7.77-.67,10.95-2,3.18-1.33,5.81-3.09,7.91-5.28,2.1-2.19,3.62-4.56,4.57-7.12l-7.06-2.24c-.73,1.79-1.83,3.44-3.31,4.96-1.48,1.51-3.3,2.73-5.48,3.64-2.17.91-4.68,1.37-7.53,1.37-4.2,0-7.84-.99-10.92-2.98-3.08-1.99-5.47-4.78-7.14-8.38-1.57-3.36-2.39-7.24-2.5-11.64h45.42v-3.23c0-5.18-.71-9.69-2.14-13.52-1.42-3.83-3.38-7-5.86-9.5ZM516.56,347.73c.19-3.38.99-6.52,2.39-9.42,1.62-3.36,3.89-6.06,6.79-8.1,2.9-2.04,6.29-3.07,10.16-3.07s7.24,1,10.02,3.01c2.77,2.01,4.91,4.75,6.41,8.21,1.22,2.82,1.93,5.94,2.16,9.36h-37.92Z"/>
      <path class="cls-1" d="M655.97,345.89c-2.15-1.7-4.54-3.11-7.17-4.24-2.63-1.13-5.26-2.06-7.88-2.79l-8.54-2.46c-2.59-.77-5.13-1.75-7.61-2.96-2.48-1.2-4.52-2.75-6.11-4.63-1.59-1.88-2.38-4.22-2.38-7.04s.8-5.5,2.41-7.75c1.61-2.24,3.83-4.01,6.68-5.31s6.13-1.94,9.86-1.94c5.33,0,9.75,1.31,13.25,3.94s5.49,6.21,5.97,10.73h7.61c-.18-4.16-1.42-7.87-3.7-11.11-2.28-3.25-5.39-5.82-9.31-7.72-3.92-1.9-8.46-2.85-13.61-2.85s-9.58.94-13.63,2.82-7.25,4.5-9.61,7.86c-2.35,3.36-3.53,7.25-3.53,11.66,0,5.15,1.75,9.44,5.26,12.87,3.5,3.43,8.5,6.1,15,7.99l9.64,2.79c3.43.99,6.41,2.12,8.95,3.39,2.54,1.28,4.51,2.84,5.91,4.68,1.4,1.84,2.11,4.12,2.11,6.82,0,3.21-.89,6.03-2.68,8.46-1.79,2.43-4.24,4.32-7.36,5.67-3.12,1.35-6.71,2.03-10.76,2.03-3.58,0-6.85-.58-9.83-1.72-2.98-1.15-5.38-2.83-7.23-5.04s-2.91-4.94-3.2-8.19h-7.94c.29,4.38,1.61,8.22,3.97,11.52,2.35,3.3,5.59,5.88,9.72,7.72,4.12,1.84,8.96,2.76,14.51,2.76,5.91,0,11-1,15.25-3.01s7.51-4.76,9.77-8.27c2.26-3.5,3.39-7.45,3.39-11.83,0-3.36-.66-6.25-1.97-8.68s-3.05-4.49-5.2-6.19Z"/>
      <path class="cls-1" d="M697.83,376.23c-.75.13-1.38.19-1.89.19-2.77.29-4.84-.27-6.19-1.7-1.35-1.42-2.03-3.65-2.03-6.68v-40.3h12.59v-6.46h-12.59v-14.56h-7.45v14.56h-9.09v6.46h9.09v40.79c0,4.75,1.38,8.44,4.13,11.09,2.76,2.65,6.58,3.81,11.47,3.48.99-.04,1.96-.13,2.93-.27.97-.15,1.85-.35,2.66-.6l-1.53-6.41c-.66.15-1.36.28-2.11.41Z"/>
      <path class="cls-1" d="M752.93,359.45c0,3.5-.74,6.54-2.22,9.12-1.48,2.57-3.5,4.55-6.05,5.91-2.56,1.37-5.44,2.05-8.65,2.05-4.71,0-8.47-1.45-11.28-4.35-2.81-2.9-4.22-6.85-4.22-11.85v-39.04h-7.45v39.59c0,4.82.88,8.9,2.66,12.24,1.77,3.34,4.23,5.88,7.39,7.61,3.16,1.73,6.8,2.6,10.92,2.6,4.56,0,8.65-1.17,12.26-3.5,2.91-1.88,5.19-4.78,6.84-8.66v11.34h7.23v-61.21h-7.45v38.16Z"/>
      <path class="cls-1" d="M820.44,333.05h-.6c-.8-1.86-1.96-3.76-3.48-5.69-1.51-1.93-3.51-3.57-5.99-4.9-2.48-1.33-5.58-2-9.31-2-4.96,0-9.34,1.31-13.11,3.94-3.78,2.63-6.73,6.32-8.84,11.06-2.12,4.75-3.18,10.28-3.18,16.59s1.05,11.91,3.15,16.67c2.1,4.76,5.04,8.47,8.81,11.11,3.78,2.65,8.15,3.97,13.11,3.97,3.72,0,6.83-.67,9.31-2,2.48-1.33,4.49-2.98,6.02-4.95s2.7-3.91,3.5-5.8h.82v11.44h7.17v-81.58h-7.39v32.14ZM818.34,364.95c-1.44,3.78-3.54,6.74-6.3,8.9-2.76,2.15-6.11,3.23-10.05,3.23s-7.3-1.11-10.07-3.34c-2.77-2.23-4.88-5.24-6.32-9.03-1.44-3.8-2.16-8.03-2.16-12.7s.71-8.88,2.14-12.62,3.52-6.71,6.3-8.9c2.77-2.19,6.15-3.29,10.13-3.29s7.29,1.06,10.05,3.18c2.76,2.12,4.85,5.04,6.3,8.76s2.16,8.01,2.16,12.87-.72,9.17-2.16,12.95Z"/>
      <path class="cls-1" d="M850.39,299.55c-1.46,0-2.73.5-3.8,1.51-1.08,1-1.62,2.24-1.62,3.7s.54,2.65,1.62,3.67c1.08,1.02,2.34,1.53,3.8,1.53s2.77-.51,3.83-1.53c1.06-1.02,1.59-2.24,1.59-3.67s-.53-2.69-1.59-3.7c-1.06-1-2.34-1.51-3.83-1.51Z"/>
      <rect class="cls-1" x="846.62" y="321.28" width="7.45" height="61.21"/>
      <path class="cls-1" d="M920.26,335.66c-2.3-4.76-5.48-8.49-9.55-11.17-4.07-2.68-8.75-4.02-14.04-4.02s-10.02,1.34-14.07,4.02c-4.05,2.68-7.23,6.41-9.53,11.17-2.3,4.76-3.45,10.28-3.45,16.56s1.15,11.63,3.45,16.4c2.3,4.76,5.48,8.49,9.53,11.17,4.05,2.68,8.74,4.02,14.07,4.02s10.03-1.34,14.1-4.02c4.07-2.68,7.24-6.41,9.53-11.17,2.28-4.76,3.42-10.23,3.42-16.4s-1.15-11.8-3.45-16.56ZM913.99,364.65c-1.51,3.76-3.73,6.77-6.65,9.03-2.92,2.26-6.48,3.39-10.68,3.39s-7.75-1.13-10.65-3.39c-2.9-2.26-5.11-5.27-6.63-9.03-1.51-3.76-2.27-7.9-2.27-12.43s.77-8.73,2.3-12.51c1.53-3.78,3.75-6.81,6.65-9.09,2.9-2.28,6.43-3.42,10.6-3.42s7.7,1.14,10.62,3.42c2.92,2.28,5.15,5.31,6.68,9.09,1.53,3.78,2.3,7.95,2.3,12.51s-.76,8.67-2.27,12.43Z"/>
    </g>
  </g>
</svg>