<?xml version="1.0" encoding="UTF-8"?>
<svg id="Layer_2" data-name="Layer 2" xmlns="http://www.w3.org/2000/svg" viewBox="0 0 1001.8 394.36">
  <defs>
    <style>
      .cls-1 {
        fill: none;
        stroke: #000;
        stroke-miterlimit: 10;
        stroke-width: 14px;
      }
    </style>
  </defs>
  <g id="Layer_1-2" data-name="Layer 1">
    <line class="cls-1" y1="108.07" x2="1001.8" y2="108.07"/>
    <g>
      <path d="M148.88,154.56L127.66,4.41h-60.48l-2.57,12.11h17.96c5.86,0,6.35,3.03,6.18,5.36l-32.35,152.19c-2.1,9.88-6.23,17.11-12.31,21.52-1.12.84-5.06,2.26-18.88,2.26h-1.5l-2.57,12.11h67.68l2.57-12.11h-1.5c-14.3,0-17.67-1.57-18.4-2.5-3.61-4.58-4.41-11.74-2.39-21.28l29.44-138.5,25.99,171.52,6.57-.43L236.41,34.03l-34.82,163.83h-27.34l-2.57,12.11h84.73l2.57-12.11h-27.34l38.54-181.34h27.34l2.57-12.11h-58.67l-92.55,150.15Z"/>
      <path d="M440.89,169.78c-13.81,11.39-26.6,19.65-38.02,24.55-11.36,4.87-25.3,7.21-41.37,6.91-15.77-.28-26.92-9.08-33.14-26.12-5.91-17.52-5.94-40.32-.11-67.78,6.62-31.14,16.42-54.99,29.12-70.9,12.52-15.68,28.28-24.06,46.85-24.91,16.89-.76,28.46,2.61,34.38,10.01,5.95,7.45,7.84,19.74,5.61,36.54l-.18,1.38h11.71l10.35-48.69-.88-.37c-9.39-3.93-17.69-6.68-24.67-8.16-7-1.48-18.71-2.23-34.81-2.23-25.61,0-49.56,9.91-71.18,29.46-21.56,19.5-35.95,44.95-42.78,75.66-6.82,30.71-3.54,57,9.77,78.17,13.43,20.83,33.13,31.39,58.56,31.39,17.19,0,32.51-2.72,45.55-8.07,13.09-5.38,26.63-15.53,40.24-30.19l.9-.97-4.51-6.81-1.37,1.13Z"/>
      <path d="M621.52,138.15c-4.83,19.1-14.2,34.18-27.87,44.83l-.04.04c-4.31,3.55-10.66,6.8-18.86,9.65-8.24,2.86-15,4.31-20.12,4.31l-43.63.85,38.54-181.31h27.64l2.57-12.11h-84.44l-2.57,12.11h27.64l-38.54,181.34h-27.64l-2.57,12.11h163.15l19.56-73.27h-12.43l-.36,1.44Z"/>
      <polygon points="683.82 16.52 711.46 16.52 672.91 197.86 645.27 197.86 642.7 209.98 729.78 209.98 732.36 197.86 705.02 197.86 743.56 16.52 770.9 16.52 773.48 4.41 686.39 4.41 683.82 16.52"/>
      <path d="M928.82,5l-2.51,11.82h1.5c15.37,0,16.62,1.82,16.7,2l.09.27c.47,1.03.82,3.26-.19,7.99-.83,3.92-3.97,10.46-9.32,19.45l-72.18,119.7-20.31-149.4h22.91l2.51-11.82h-79.15l-2.51,11.82h22.48l26.72,199.33h13.86l100.01-168.57c8.51-14.9,15.81-24.14,21.74-27.49,3.94-2.35,10.9-3.45,20.69-3.27l1.52.03,2.52-11.85h-67.09Z"/>
    </g>
    <g>
      <path d="M52.66,309.86l-29.56,83.1h13.78l7.43-21.92h32.64l7.67,21.92h13.78l-30.12-83.1h-15.62ZM73.24,360.45h-25.35l4.65-13.72c1.15-3.57,2.48-7.93,3.99-13.08,1.17-3.99,2.45-8.6,3.85-13.82,1.44,5.15,2.74,9.7,3.9,13.63,1.51,5.09,2.89,9.52,4.16,13.27l4.8,13.72Z"/>
      <path d="M194.12,373.05c-1.32,2.05-2.94,3.77-4.85,5.16-1.92,1.4-4.03,2.45-6.36,3.18-2.32.72-4.79,1.09-7.39,1.09-4.72,0-8.96-1.18-12.72-3.54-3.76-2.36-6.73-5.86-8.92-10.49-2.19-4.63-3.29-10.29-3.29-16.98s1.08-12.35,3.23-16.98c2.16-4.63,5.12-8.14,8.9-10.54,3.77-2.4,8.04-3.6,12.8-3.6,2.6,0,5.08.35,7.42,1.06,2.34.71,4.46,1.77,6.36,3.18,1.9,1.41,3.5,3.13,4.82,5.16,1.32,2.03,2.24,4.36,2.76,7h12.77c-.71-4.39-2.06-8.31-4.04-11.77-1.99-3.46-4.5-6.39-7.53-8.81-3.03-2.42-6.47-4.26-10.32-5.52-3.85-1.26-7.97-1.9-12.35-1.9-7.18,0-13.59,1.71-19.24,5.13-5.65,3.42-10.09,8.32-13.33,14.7-3.23,6.38-4.85,14.01-4.85,22.89s1.62,16.46,4.85,22.84c3.23,6.38,7.68,11.27,13.33,14.67,5.65,3.4,12.07,5.1,19.24,5.1,4.57,0,8.8-.68,12.69-2.04,3.88-1.36,7.33-3.3,10.35-5.83,3.01-2.53,5.48-5.49,7.42-8.9,1.93-3.4,3.22-7.15,3.85-11.24h-12.83c-.52,2.6-1.44,4.93-2.76,6.97Z"/>
      <path d="M252.04,329.72c-3.64,0-6.9.97-9.76,2.9-2.86,1.93-4.87,4.61-6.02,8.03h-.67v-10.04h-11.88v62.35h12.27v-37.87c0-2.75.63-5.18,1.9-7.28,1.26-2.1,3.03-3.75,5.3-4.94,2.27-1.19,4.81-1.78,7.64-1.78,1.3,0,2.58.07,3.85.22,1.26.15,2.12.3,2.57.45v-11.71c-.67-.11-1.51-.19-2.51-.25-1-.05-1.9-.08-2.68-.08Z"/>
      <path d="M310.77,337.08c-2.64-2.49-5.61-4.32-8.92-5.49-3.31-1.17-6.75-1.76-10.32-1.76-5.8,0-10.86,1.37-15.17,4.1-4.31,2.73-7.65,6.54-10.01,11.41-2.36,4.87-3.54,10.5-3.54,16.9s1.2,12.1,3.6,16.9,5.83,8.52,10.29,11.15c4.46,2.64,9.76,3.96,15.9,3.96,4.46,0,8.45-.68,11.96-2.04,3.51-1.36,6.45-3.26,8.81-5.72,2.36-2.45,4.04-5.28,5.05-8.48l-11.54-2.73c-.71,1.93-1.74,3.56-3.1,4.88-1.36,1.32-2.97,2.31-4.82,2.95-1.86.65-3.94.98-6.25.98-3.5,0-6.56-.75-9.2-2.26-2.64-1.51-4.69-3.74-6.16-6.69-1.33-2.67-2.05-5.88-2.18-9.62h44.2v-4.35c0-5.65-.77-10.46-2.31-14.42-1.54-3.96-3.63-7.18-6.27-9.68ZM275.2,356.38c.19-2.6.8-5.02,1.86-7.28,1.28-2.73,3.15-4.94,5.61-6.61s5.41-2.51,8.87-2.51,6.4.82,8.73,2.45c2.32,1.64,4.08,3.91,5.27,6.83.87,2.13,1.41,4.5,1.65,7.11h-31.98Z"/>
      <path d="M373.85,333.96c-2.49-1.56-5.15-2.64-7.98-3.23-2.83-.59-5.5-.89-8.03-.89-3.64,0-7.18.52-10.6,1.56-3.42,1.04-6.45,2.7-9.09,4.96-2.64,2.27-4.67,5.26-6.08,8.98l11.54,3.01c.59-1.41,1.5-2.77,2.7-4.07,1.21-1.3,2.79-2.37,4.74-3.21,1.95-.84,4.28-1.25,7-1.25s4.84.44,6.61,1.31c1.77.87,3.1,2.11,3.99,3.71.89,1.6,1.34,3.57,1.34,5.91v.33c0,1.45-.55,2.5-1.65,3.15-1.1.65-2.8,1.12-5.1,1.4-2.31.28-5.3.64-8.98,1.09-2.94.33-5.83.84-8.67,1.51s-5.43,1.67-7.75,3.01c-2.32,1.34-4.16,3.14-5.52,5.41-1.36,2.27-2.04,5.17-2.04,8.7,0,4.09.93,7.55,2.79,10.37,1.86,2.83,4.39,4.97,7.58,6.44,3.2,1.47,6.77,2.2,10.71,2.2,3.38,0,6.29-.49,8.73-1.48,2.43-.98,4.45-2.24,6.05-3.77,1.6-1.52,2.81-3.09,3.63-4.68h.61v8.53h11.88v-41.38c0-4.54-.78-8.22-2.34-11.04-1.56-2.83-3.59-5.02-6.08-6.58ZM370.06,370.49c0,2.42-.63,4.7-1.9,6.86-1.26,2.16-3.09,3.89-5.47,5.19-2.38,1.3-5.24,1.95-8.59,1.95-2.31,0-4.33-.33-6.08-1-1.75-.67-3.13-1.67-4.16-3.01-1.02-1.34-1.53-2.99-1.53-4.96,0-2.16.57-3.89,1.7-5.19,1.13-1.3,2.66-2.3,4.57-3.01,1.91-.71,4.02-1.21,6.33-1.51.97-.11,2.19-.26,3.68-.45,1.49-.19,3.03-.42,4.63-.7,1.6-.28,3.02-.59,4.27-.95,1.25-.35,2.09-.75,2.54-1.2v7.98Z"/>
      <path d="M422.31,383.15c-1.04.15-1.88.22-2.51.22-2.42,0-4.16-.59-5.21-1.76-1.06-1.17-1.59-3-1.59-5.49v-35.53h12.44v-9.98h-12.44v-14.84h-12.27v14.84h-9.09v9.98h9.09v36.53c0,5.28,1.56,9.38,4.68,12.3s7.51,4.38,13.16,4.38c1.45,0,2.92-.1,4.41-.31,1.49-.2,2.88-.53,4.18-.98l-2.18-9.82c-.74.15-1.64.3-2.68.45Z"/>
      <rect x="437.65" y="330.61" width="12.27" height="62.35"/>
      <path d="M443.84,306.52c-2.12,0-3.93.71-5.44,2.12-1.51,1.41-2.26,3.14-2.26,5.19s.75,3.67,2.26,5.1,3.32,2.15,5.44,2.15,3.94-.71,5.47-2.12c1.52-1.41,2.29-3.12,2.29-5.13s-.76-3.77-2.29-5.19c-1.53-1.41-3.35-2.12-5.47-2.12Z"/>
      <path d="M495.71,366.02c-1.34,3.9-2.49,7.82-3.46,11.74-.39,1.58-.79,3.16-1.19,4.73-.41-1.57-.81-3.15-1.2-4.73-.97-3.92-2.14-7.84-3.51-11.74l-12.33-35.42h-13.27l23.54,62.35h13.39l23.54-62.35h-13.16l-12.33,35.42Z"/>
      <path d="M574.96,337.08c-2.64-2.49-5.62-4.32-8.92-5.49-3.31-1.17-6.75-1.76-10.32-1.76-5.8,0-10.86,1.37-15.17,4.1-4.31,2.73-7.65,6.54-10.01,11.41-2.36,4.87-3.54,10.5-3.54,16.9s1.2,12.1,3.6,16.9c2.4,4.8,5.83,8.52,10.29,11.15,4.46,2.64,9.76,3.96,15.9,3.96,4.46,0,8.45-.68,11.96-2.04,3.51-1.36,6.45-3.26,8.81-5.72,2.36-2.45,4.04-5.28,5.05-8.48l-11.54-2.73c-.71,1.93-1.74,3.56-3.09,4.88-1.36,1.32-2.97,2.31-4.82,2.95-1.86.65-3.94.98-6.25.98-3.5,0-6.56-.75-9.2-2.26-2.64-1.51-4.69-3.74-6.16-6.69-1.33-2.67-2.05-5.88-2.18-9.62h44.2v-4.35c0-5.65-.77-10.46-2.31-14.42-1.54-3.96-3.64-7.18-6.27-9.68ZM539.39,356.38c.19-2.6.8-5.02,1.86-7.28,1.28-2.73,3.15-4.94,5.61-6.61s5.41-2.51,8.87-2.51,6.4.82,8.73,2.45c2.32,1.64,4.08,3.91,5.27,6.83.87,2.13,1.41,4.5,1.65,7.11h-31.98Z"/>
      <path d="M679.09,353.67c-2.38-1.8-4.97-3.27-7.78-4.41-2.81-1.13-5.53-2.04-8.17-2.71l-8.09-2.12c-2.12-.56-4.34-1.31-6.67-2.26-2.32-.95-4.29-2.23-5.91-3.85-1.62-1.62-2.43-3.75-2.43-6.39,0-2.34.68-4.43,2.04-6.27,1.36-1.84,3.27-3.28,5.74-4.32,2.47-1.04,5.38-1.56,8.73-1.56,4.72,0,8.64,1.04,11.74,3.12,3.1,2.08,4.86,5.02,5.27,8.81h12.38c-.11-4.42-1.4-8.37-3.88-11.82-2.47-3.46-5.87-6.18-10.21-8.17-4.33-1.99-9.34-2.98-15.03-2.98s-10.59,1-15.03,2.98c-4.44,1.99-7.96,4.78-10.54,8.37-2.59,3.59-3.88,7.78-3.88,12.58,0,5.69,1.9,10.32,5.72,13.89,3.81,3.57,9.12,6.27,15.92,8.09l9.7,2.68c3.01.78,5.7,1.68,8.06,2.7,2.36,1.02,4.24,2.31,5.63,3.85,1.39,1.54,2.09,3.52,2.09,5.94,0,2.68-.8,5.03-2.4,7.05-1.6,2.03-3.77,3.59-6.5,4.68-2.73,1.1-5.87,1.65-9.4,1.65-3.16,0-6.1-.48-8.81-1.45-2.71-.97-4.92-2.44-6.61-4.41-1.69-1.97-2.67-4.46-2.93-7.47h-12.77c.26,5.06,1.68,9.42,4.27,13.08,2.58,3.66,6.16,6.48,10.74,8.45s9.96,2.96,16.17,2.96,12.06-1.05,16.65-3.15c4.59-2.1,8.1-4.99,10.51-8.67,2.42-3.68,3.63-7.86,3.63-12.55,0-3.75-.73-6.96-2.2-9.62-1.47-2.66-3.39-4.89-5.77-6.69Z"/>
      <path d="M724.77,383.15c-1.04.15-1.88.22-2.51.22-2.42,0-4.15-.59-5.22-1.76-1.06-1.17-1.59-3-1.59-5.49v-35.53h12.44v-9.98h-12.44v-14.84h-12.27v14.84h-9.09v9.98h9.09v36.53c0,5.28,1.56,9.38,4.68,12.3s7.51,4.38,13.16,4.38c1.45,0,2.92-.1,4.41-.31,1.49-.2,2.88-.53,4.18-.98l-2.18-9.82c-.74.15-1.64.3-2.68.45Z"/>
      <path d="M780.04,367.53c0,3.27-.63,6.07-1.9,8.39-1.26,2.32-2.98,4.09-5.16,5.3-2.17,1.21-4.66,1.81-7.45,1.81-4.05,0-7.26-1.26-9.62-3.79-2.36-2.53-3.54-6.04-3.54-10.54v-38.09h-12.27v39.6c0,5.13.88,9.44,2.65,12.94,1.77,3.5,4.25,6.13,7.45,7.92,3.2,1.78,6.92,2.68,11.15,2.68,4.76,0,8.89-1.26,12.38-3.79,2.82-2.04,5.08-5.11,6.82-9.19l.04,12.2h11.71v-62.35h-12.27v36.92Z"/>
      <path d="M850.64,340.76h-.67c-.71-1.3-1.73-2.81-3.07-4.52-1.34-1.71-3.19-3.21-5.55-4.49-2.36-1.28-5.48-1.92-9.34-1.92-4.98,0-9.44,1.26-13.39,3.79-3.94,2.53-7.05,6.19-9.31,10.99-2.27,4.8-3.4,10.58-3.4,17.35s1.12,12.45,3.35,17.26c2.23,4.82,5.32,8.52,9.26,11.1,3.94,2.58,8.44,3.88,13.5,3.88,3.75,0,6.82-.64,9.2-1.92,2.38-1.28,4.26-2.78,5.63-4.49,1.38-1.71,2.42-3.23,3.12-4.57h1v9.76h11.94v-83.1h-12.27v30.9ZM849,373.25c-1.25,3.29-3.07,5.87-5.47,7.72-2.4,1.86-5.35,2.79-8.84,2.79s-6.51-.97-8.92-2.9c-2.42-1.93-4.24-4.55-5.47-7.86-1.23-3.31-1.84-7.03-1.84-11.15s.6-7.76,1.81-11.01c1.21-3.25,3.01-5.83,5.41-7.72,2.4-1.9,5.4-2.84,9.01-2.84s6.5.9,8.9,2.7c2.4,1.8,4.21,4.31,5.44,7.53s1.84,7,1.84,11.35-.62,8.11-1.87,11.41Z"/>
      <rect x="879.42" y="330.61" width="12.27" height="62.35"/>
      <path d="M885.61,306.52c-2.12,0-3.93.71-5.44,2.12-1.5,1.41-2.26,3.14-2.26,5.19s.75,3.67,2.26,5.1c1.51,1.43,3.32,2.15,5.44,2.15s3.94-.71,5.47-2.12c1.52-1.41,2.29-3.12,2.29-5.13s-.76-3.77-2.29-5.19c-1.52-1.41-3.35-2.12-5.47-2.12Z"/>
      <path d="M959.96,345.14c-2.42-4.85-5.81-8.62-10.18-11.29s-9.49-4.02-15.36-4.02-10.94,1.34-15.31,4.02-7.76,6.44-10.18,11.29c-2.42,4.85-3.63,10.51-3.63,16.98s1.21,12.01,3.63,16.84c2.42,4.83,5.81,8.59,10.18,11.27s9.47,4.02,15.31,4.02,11-1.34,15.36-4.02,7.76-6.43,10.18-11.27c2.42-4.83,3.63-10.45,3.63-16.84s-1.21-12.13-3.63-16.98ZM949.33,372.97c-1.21,3.29-3.05,5.93-5.52,7.92-2.47,1.99-5.61,2.98-9.4,2.98s-6.86-.99-9.31-2.98c-2.45-1.99-4.29-4.63-5.49-7.92-1.21-3.29-1.81-6.91-1.81-10.85s.6-7.68,1.81-10.99c1.21-3.31,3.04-5.96,5.49-7.95,2.45-1.99,5.56-2.98,9.31-2.98s6.92,1,9.4,2.98c2.47,1.99,4.31,4.65,5.52,7.98s1.81,6.98,1.81,10.96-.6,7.56-1.81,10.85Z"/>
    </g>
  </g>
</svg>