<?xml version="1.0" encoding="UTF-8"?>
<svg id="Layer_1" data-name="Layer 1" xmlns="http://www.w3.org/2000/svg" viewBox="0 0 1001.8 216.15">
  <defs>
    <style>
      .cls-1 {
        fill: none;
        stroke: #000;
        stroke-miterlimit: 10;
        stroke-width: 14px;
      }
    </style>
  </defs>
  <line class="cls-1" y1="108.07" x2="1001.8" y2="108.07"/>
  <g>
    <path d="M148.88,154.56L127.66,4.41h-60.48l-2.57,12.11h17.96c5.86,0,6.35,3.03,6.18,5.36l-32.35,152.19c-2.1,9.88-6.23,17.11-12.31,21.52-1.12.84-5.06,2.26-18.88,2.26h-1.5l-2.57,12.11h67.68l2.57-12.11h-1.5c-14.3,0-17.67-1.57-18.4-2.5-3.61-4.58-4.41-11.74-2.39-21.28l29.44-138.5,25.99,171.52,6.57-.43L236.41,34.03l-34.82,163.83h-27.34l-2.57,12.11h84.73l2.57-12.11h-27.34l38.54-181.34h27.34l2.57-12.11h-58.67l-92.55,150.15Z"/>
    <path d="M440.89,169.78c-13.81,11.39-26.6,19.65-38.02,24.55-11.36,4.87-25.3,7.21-41.37,6.91-15.77-.28-26.92-9.08-33.14-26.12-5.91-17.52-5.94-40.32-.11-67.78,6.62-31.14,16.42-54.99,29.12-70.9,12.52-15.68,28.28-24.06,46.85-24.91,16.89-.76,28.46,2.61,34.38,10.01,5.95,7.45,7.84,19.74,5.61,36.54l-.18,1.38h11.71l10.35-48.69-.88-.37c-9.39-3.93-17.69-6.68-24.67-8.16-7-1.48-18.71-2.23-34.81-2.23-25.61,0-49.56,9.91-71.18,29.46-21.56,19.5-35.95,44.95-42.78,75.66-6.82,30.71-3.54,57,9.77,78.17,13.43,20.83,33.13,31.39,58.56,31.39,17.19,0,32.51-2.72,45.55-8.07,13.09-5.38,26.63-15.53,40.24-30.19l.9-.97-4.51-6.81-1.37,1.13Z"/>
    <path d="M621.52,138.15c-4.83,19.1-14.2,34.18-27.87,44.83l-.04.04c-4.31,3.55-10.66,6.8-18.86,9.65-8.24,2.86-15,4.31-20.12,4.31l-43.63.85,38.54-181.31h27.64l2.57-12.11h-84.44l-2.57,12.11h27.64l-38.54,181.34h-27.64l-2.57,12.11h163.15l19.56-73.27h-12.43l-.36,1.44Z"/>
    <polygon points="683.82 16.52 711.46 16.52 672.91 197.86 645.27 197.86 642.7 209.98 729.78 209.98 732.36 197.86 705.02 197.86 743.56 16.52 770.9 16.52 773.48 4.41 686.39 4.41 683.82 16.52"/>
    <path d="M928.82,5l-2.51,11.82h1.5c15.37,0,16.62,1.82,16.7,2l.09.27c.47,1.03.82,3.26-.19,7.99-.83,3.92-3.97,10.46-9.32,19.45l-72.18,119.7-20.31-149.4h22.91l2.51-11.82h-79.15l-2.51,11.82h22.48l26.72,199.33h13.86l100.01-168.57c8.51-14.9,15.81-24.14,21.74-27.49,3.94-2.35,10.9-3.45,20.69-3.27l1.52.03,2.52-11.85h-67.09Z"/>
  </g>
</svg>